<svg xmlns="http://www.w3.org/2000/svg" version="1.1" xmlns:xlink="http://www.w3.org/1999/xlink" xmlns:svgjs="http://svgjs.dev/svgjs" width="1000" height="1000" viewBox="0 0 1000 1000"><g transform="matrix(1,0,0,1,-0.49999999999994316,-0.49999999999994316)"><svg viewBox="0 0 280 280" data-background-color="#ffffff" preserveAspectRatio="xMidYMid meet" height="1000" width="1000" xmlns="http://www.w3.org/2000/svg" xmlns:xlink="http://www.w3.org/1999/xlink"><g id="tight-bounds" transform="matrix(1,0,0,1,0.13999999999998636,0.13999999999998636)"><svg viewBox="0 0 279.72 279.72" height="279.72" width="279.72"><g><svg viewBox="0 0 279.72 279.72" height="279.72" width="279.72"><g><svg viewBox="0 0 279.72 279.72" height="279.72" width="279.72"><g id="textblocktransform"><svg viewBox="0 0 279.72 279.72" height="279.72" width="279.72" id="textblock"><g><svg viewBox="0 0 279.72 279.72" height="279.72" width="279.72"><g transform="matrix(1,0,0,1,57.446704652707865,57.446704652707865)"><svg viewBox="0 0 164.8265906945843 164.8265906945843" height="164.8265906945843" width="164.8265906945843"><g><circle r="82" cx="82.41329534729215" cy="82.41329534729215" fill="#c2dedc" data-fill-palette-color="accent"></circle><svg xmlns="http://www.w3.org/2000/svg" xmlns:xlink="http://www.w3.org/1999/xlink" version="1.1" x="24.723988604187646" y="24.72398860418764" viewBox="1.1659965515136719 1.1660000085830688 97.54200744628906 97.54199981689453" enable-background="new 0 0 100 100" xml:space="preserve" height="115.378613486209" width="115.378613486209" class="icon-o-0" data-fill-palette-color="quaternary" id="o-0"><g fill="#ffffff" data-fill-palette-color="quaternary"><path d="M49.937 1.166c-26.935 0-48.771 21.836-48.771 48.771s21.836 48.771 48.771 48.771 48.771-21.836 48.771-48.771S76.871 1.166 49.937 1.166zM49.938 95.927c-25.36 0-45.991-20.631-45.991-45.99 0-25.36 20.631-45.99 45.991-45.99 25.358 0 45.989 20.63 45.989 45.99C95.927 75.296 75.296 95.927 49.938 95.927z" fill="#ffffff" data-fill-palette-color="quaternary"></path><path d="M49.938 5.923c-24.271 0-44.015 19.744-44.015 44.014S25.667 93.95 49.938 93.95c24.269 0 44.013-19.744 44.013-44.014S74.206 5.923 49.938 5.923zM77.279 18.892c6.439 5.678 11.096 13.321 13.032 21.998-0.634 0.113-1.802 0.362-3.064 0.502-1.803-7.904-6.045-14.873-11.899-20.076C76.023 20.375 76.861 19.414 77.279 18.892zM63.533 36.717c0.783-2.075 4.41-9.496 6.178-13.131 0.095-0.194 0.284-0.529 0.464-0.825 7.08 5.28 12.019 13.263 13.306 22.419-0.388 0.018-0.906 0.02-1.168 0.003-4.033-0.264-12.204-0.789-14.395-1.136-2.692-0.524-4.252-2.378-4.252-2.378s-0.004 0.002-0.006 0.005C63.459 41.129 62.774 38.965 63.533 36.717zM64.403 49.937c0 7.977-6.49 14.467-14.467 14.467S35.47 57.913 35.47 49.937c0-7.978 6.49-14.468 14.467-14.468S64.403 41.959 64.403 49.937zM53.927 31.318c0 0-2.204 2.708-4.856 2.464-0.522-0.083-2.543-0.502-4.221-2.175-1.513-1.621-7.073-8.916-9.55-12.112-0.026-0.033-0.037-0.065-0.058-0.098 4.444-2.144 9.429-3.344 14.694-3.344 4.623 0 9.029 0.929 13.045 2.605C60.802 22.057 53.927 31.318 53.927 31.318zM49.937 8.558c4.405 0 8.646 0.694 12.629 1.97-0.639 1.216-1.257 2.419-1.448 2.791-3.537-1.079-7.291-1.663-11.181-1.663-4.763 0-9.317 0.876-13.522 2.465-0.707-1.027-1.271-2.123-1.589-2.702C39.508 9.578 44.601 8.558 49.937 8.558zM28.413 23.768c2.01 3.326 7.343 14.059 7.343 14.059s1.432 2.641 0.036 4.91l-0.021 0.035c-0.568 0.571-1.904 1.713-3.878 2.151-2.181 0.404-10.334 1.172-14.359 1.541-0.295 0.026-0.914 0.037-1.307 0.025C17.149 37.357 21.7 29.296 28.413 23.768zM20.67 20.684c0.895 0.894 1.68 1.851 2.058 2.332-5.246 5.3-8.945 12.125-10.392 19.751-1.295-0.169-2.497-0.393-3.063-0.463C10.833 33.942 14.896 26.461 20.67 20.684zM22.706 81.079c-6.431-5.628-11.1-13.212-13.082-21.825 1.174-0.063 2.44-0.102 3.151-0.119 1.889 7.652 6.076 14.395 11.791 19.457C23.816 79.607 22.966 80.68 22.706 81.079zM36.254 62.812c-0.784 2.074-3.872 9.304-5.64 12.939-0.18 0.368-0.713 1.26-0.842 1.395-0.004 0.004-0.009 0.007-0.012 0.011-7.094-5.268-12.054-13.241-13.358-22.394 3.6 0.034 15.846 1.174 15.846 1.174s3.201 0.265 4.366 2.662l0.065 0.176C36.867 59.623 36.854 61.032 36.254 62.812zM49.937 91.314c-4.334 0-8.511-0.668-12.437-1.904 0.51-0.976 1.07-2.097 1.423-2.81 3.489 1.047 7.184 1.616 11.014 1.616 4.079 0 8.007-0.645 11.694-1.825 0.436 1.318 0.857 2.479 1.07 2.907C58.68 90.603 54.392 91.314 49.937 91.314zM49.937 83.819c-4.587 0-8.958-0.917-12.95-2.568 0.006-0.009 0.01-0.018 0.016-0.027 1.672-2.8 8.856-13.014 8.856-13.014s1.771-2.416 4.427-2.171l-0.002-0.103c0.657 0.17 2.483 0.769 3.936 2.434 1.396 1.722 6.088 8.719 8.337 12.078 0.111 0.166 0.288 0.47 0.446 0.757C58.98 82.888 54.567 83.819 49.937 83.819zM70.19 77.101c-1.852-3.626-6.467-14.304-6.467-14.304s-1.301-2.762 0.249-4.93l0.071-0.13c1.135-2.337 3.811-2.673 3.811-2.673s12.152-1.478 15.783-1.614C82.643 63.119 77.581 71.582 70.19 77.101zM77.432 80.849c-0.76-1.22-1.462-2.312-1.679-2.65 5.83-5.328 10.005-12.435 11.667-20.462 0.714 0.013 1.972 0.039 3.139 0.074C88.806 66.9 84.082 74.93 77.432 80.849z" fill="#ffffff" data-fill-palette-color="quaternary"></path><path d="M49.937 37.445c-6.888 0-12.49 5.604-12.49 12.491s5.603 12.49 12.49 12.49 12.49-5.603 12.49-12.49S56.824 37.445 49.937 37.445zM44.978 40.297c1.212 0 2.197 0.986 2.197 2.198 0 1.211-0.985 2.196-2.197 2.196s-2.198-0.985-2.198-2.196C42.779 41.283 43.766 40.297 44.978 40.297zM41.522 54.393c-1.212 0-2.198-0.984-2.198-2.196s0.986-2.198 2.198-2.198c1.211 0 2.196 0.986 2.196 2.198S42.733 54.393 41.522 54.393zM49.936 60.928c-1.212 0-2.198-0.984-2.198-2.196s0.986-2.198 2.198-2.198 2.197 0.986 2.197 2.198S51.147 60.928 49.936 60.928zM49.937 55.298c-2.962 0-5.362-2.399-5.362-5.361s2.4-5.362 5.362-5.362 5.362 2.4 5.362 5.362S52.898 55.298 49.937 55.298zM53.102 42.968c0-1.212 0.985-2.198 2.197-2.198 1.213 0 2.197 0.986 2.197 2.198s-0.984 2.197-2.197 2.197C54.087 45.165 53.102 44.18 53.102 42.968zM60.532 52.87c0 1.212-0.985 2.198-2.197 2.198s-2.197-0.986-2.197-2.198 0.985-2.197 2.197-2.197S60.532 51.658 60.532 52.87z" fill="#ffffff" data-fill-palette-color="quaternary"></path></g></svg></g></svg></g><g><path d="M31.342 104.692l-2.654 7.734-26.381-9.053 2.781-8.102c2.009-5.854 5.296-7.998 9.861-6.431v0c1.478 0.507 2.621 1.321 3.431 2.443 0.816 1.124 1.138 2.376 0.967 3.758v0c0.732-1.436 1.786-2.388 3.162-2.858 1.379-0.476 2.947-0.426 4.704 0.149v0c4.993 1.713 6.369 5.833 4.129 12.36zM27.927 102.845c0.609-1.773 0.652-3.171 0.132-4.193-0.523-1.016-1.435-1.747-2.737-2.193-1.302-0.447-2.388-0.363-3.259 0.252-0.872 0.615-1.612 1.808-2.22 3.581v0l-1.357 3.952 8.017 2.751zM13.858 93.062v0c-2.364-0.811-4.049 0.248-5.055 3.178v0l-1.437 4.188 7.489 2.57 1.327-3.867c1.079-3.144 0.304-5.167-2.324-6.069z" fill="#116a7b" data-fill-palette-color="primary"></path><path d="M60.82 58.42l-9.986 11.244-2.96-2.629 3.649-4.108-14.934-13.263-3.648 4.108-2.96-2.629 9.985-11.243 2.96 2.628-3.39 3.818 14.934 13.263 3.39-3.817z" fill="#116a7b" data-fill-palette-color="primary"></path><path d="M99.911 29.637v0l2.223 3.068c-2.294 1.965-4.341 3.353-6.142 4.163-1.801 0.81-3.344 1.253-4.629 1.328-1.289 0.084-2.566-0.179-3.833-0.79v0c-2.607-1.225-5.058-4.387-7.352-9.486v0c-3.857-8.572-2.655-14.267 3.608-17.084v0c2.176-0.979 4.534-1.588 7.073-1.827v0l0.631 3.685c-2.264 0.363-4.269 0.937-6.016 1.723-1.752 0.788-2.777 2.059-3.074 3.811-0.304 1.755 0.34 4.4 1.929 7.934 1.59 3.534 3.085 5.869 4.486 7.003 1.397 1.128 3.099 1.241 5.105 0.338 2.007-0.903 4.004-2.192 5.991-3.866z" fill="#116a7b" data-fill-palette-color="primary"></path><path d="M150.527 0l-8.426 15.835 0 12.056-4.427 0 0-12.056-8.436-15.835 4.936 0 5.544 11.707h0.339l5.534-11.707z" fill="#116a7b" data-fill-palette-color="primary"></path><path d="M195.3 36.36v0l-0.726 3.717c-3.002-0.336-5.413-0.886-7.234-1.649-1.821-0.763-3.197-1.589-4.13-2.478-0.941-0.885-1.62-1.998-2.038-3.341v0c-0.883-2.742-0.244-6.691 1.919-11.846v0c3.635-8.669 8.619-11.675 14.951-9.02v0c2.201 0.923 4.255 2.231 6.162 3.924v0l-2.264 2.976c-1.81-1.408-3.598-2.482-5.364-3.223-1.772-0.743-3.4-0.625-4.884 0.353-1.49 0.975-2.985 3.25-4.483 6.824-1.499 3.574-2.185 6.26-2.06 8.057 0.128 1.791 1.207 3.112 3.237 3.963 2.029 0.851 4.334 1.432 6.914 1.743z" fill="#116a7b" data-fill-palette-color="primary"></path><path d="M224.731 59.211l7.938 8.137-2.862 2.792-11.037-11.313 19.964-19.476 3.099 3.176z" fill="#116a7b" data-fill-palette-color="primary"></path><path d="M251.364 112.261l-5.806-15.384 26.094-9.849 5.761 15.263-3.741 1.412-4.198-11.121-7.249 2.736 3.793 10.048-3.592 1.355-3.792-10.047-7.772 2.933 4.243 11.242z" fill="#116a7b" data-fill-palette-color="primary"></path><path d="M12.049 189.267l-2.705-7.854 26.776-9.222 2.831 8.221c2.046 5.94 0.752 9.707-3.88 11.303v0c-1.502 0.517-2.929 0.58-4.28 0.188-1.349-0.386-2.387-1.185-3.115-2.397v0c0.312 1.601 0.063 3.019-0.749 4.255-0.81 1.242-2.096 2.181-3.86 2.816v0c-5.066 1.745-8.739-0.692-11.018-7.31zM15.937 188.613c0.619 1.798 1.456 2.94 2.509 3.428 1.056 0.494 2.244 0.514 3.564 0.059 1.32-0.455 2.138-1.204 2.453-2.247 0.311-1.035 0.157-2.452-0.461-4.25v0l-1.38-4.007-8.137 2.803zM33.306 187.662v0c2.401-0.827 3.09-2.727 2.066-5.7v0l-1.465-4.252-7.608 2.62 1.35 3.922c1.1 3.193 2.985 4.329 5.657 3.41z" fill="#116a7b" data-fill-palette-color="primary"></path><path d="M45.678 242.492l-10.144-11.41 3.004-2.67 3.71 4.174 15.158-13.476-3.71-4.174 3.004-2.67 10.143 11.41-3.004 2.67-3.451-3.883-15.159 13.476 3.452 3.883z" fill="#116a7b" data-fill-palette-color="primary"></path><path d="M95.452 267.873v0l-0.832 3.748c-3.034-0.417-5.467-1.037-7.298-1.86-1.825-0.821-3.201-1.691-4.129-2.611-0.934-0.923-1.594-2.072-1.98-3.449v0c-0.829-2.808-0.08-6.8 2.248-11.978v0c3.912-8.7 9.051-11.619 15.418-8.757v0c2.207 0.992 4.256 2.369 6.146 4.131v0l-2.373 2.967c-1.801-1.473-3.59-2.609-5.367-3.408-1.77-0.796-3.423-0.719-4.958 0.23-1.538 0.956-3.114 3.228-4.728 6.818-1.614 3.589-2.378 6.293-2.291 8.11 0.078 1.821 1.135 3.189 3.173 4.105 2.037 0.916 4.361 1.567 6.971 1.954z" fill="#116a7b" data-fill-palette-color="primary"></path><path d="M150.694 251.4l-8.566 16.085 0 12.235-4.487 0 0-12.235-8.565-16.084 5.015 0 5.624 11.886h0.339l5.624-11.887z" fill="#116a7b" data-fill-palette-color="primary"></path><path d="M199.726 261.173v0l2.169 3.168c-2.377 1.932-4.491 3.285-6.343 4.06-1.846 0.773-3.421 1.184-4.727 1.233-1.312 0.052-2.602-0.251-3.872-0.909v0c-2.617-1.311-5.022-4.586-7.214-9.823v0c-3.683-8.8-2.306-14.547 4.133-17.242v0c2.232-0.934 4.637-1.491 7.214-1.669v0l0.547 3.76c-2.306 0.31-4.358 0.84-6.154 1.593-1.791 0.75-2.863 2.009-3.218 3.779-0.352 1.776 0.232 4.479 1.751 8.109 1.52 3.63 2.973 6.034 4.36 7.213 1.383 1.187 3.105 1.349 5.165 0.486 2.06-0.862 4.123-2.115 6.189-3.758z" fill="#116a7b" data-fill-palette-color="primary"></path><path d="M233.484 236.721l8.067-8.248 2.908 2.844-11.211 11.464-20.246-19.801 3.144-3.216z" fill="#116a7b" data-fill-palette-color="primary"></path><path d="M270.504 182.176l-5.92 15.608-26.479-10.043 5.874-15.487 3.804 1.443-4.279 11.282 7.357 2.79 3.865-10.191 3.636 1.379-3.865 10.191 7.878 2.988 4.325-11.403z" fill="#116a7b" data-fill-palette-color="primary"></path><path d="M11.109 143.578c0-1.792 1.453-3.245 3.245-3.245 1.792 0 3.245 1.453 3.245 3.245 0 1.792-1.453 3.245-3.245 3.246-1.792 0-3.245-1.453-3.245-3.246z" fill="#116a7b" data-fill-palette-color="primary"></path><path d="M262.148 143.578c0-1.792 1.453-3.245 3.245-3.245 1.792 0 3.245 1.453 3.246 3.245 0 1.792-1.453 3.245-3.246 3.246-1.792 0-3.245-1.453-3.245-3.246z" fill="#116a7b" data-fill-palette-color="primary"></path></g></svg></g></svg></g></svg></g><g></g></svg></g><defs></defs></svg><rect width="279.72" height="279.72" fill="none" stroke="none" visibility="hidden"></rect></g></svg></g></svg>